<svg xmlns="http://www.w3.org/2000/svg" viewBox="0 0 128 128" role="img" aria-labelledby="title"><title>first_win</title><defs><linearGradient id="rim" x1="0" y1="0" x2="1" y2="1"><stop stop-color="#fff3d7"/><stop offset=".55" stop-color="#d9a441"/><stop offset="1" stop-color="#8a5725"/></linearGradient></defs><path d="M20 18h88v92H20z" rx="25" fill="#5a4537" stroke="#342d29" stroke-width="5"/><path d="M25 20h78c8 0 14 6 14 14v60c0 8-6 14-14 14H25c-8 0-14-6-14-14V34c0-8 6-14 14-14z" fill="url(#rim)" stroke="#fff8e7" stroke-width="3"/><circle cx="64" cy="64" r="47" fill="#c9852d" stroke="#342d29" stroke-width="4"/><path d="M35 38c17-15 43-18 61-4" fill="none" stroke="#342d29" stroke-width="6" stroke-linecap="round" stroke-linejoin="round" opacity=".22"/><circle cx="23" cy="32" r="3.5" fill="#66554a"/><circle cx="105" cy="32" r="3.5" fill="#66554a"/><circle cx="23" cy="96" r="3.5" fill="#66554a"/><circle cx="105" cy="96" r="3.5" fill="#66554a"/><g fill="none" stroke="#f8edcf" stroke-width="7" stroke-linecap="round" stroke-linejoin="round"><path d="M43 31h42v20c0 20-9 30-21 30S43 71 43 51z"/><path d="M43 39H29c0 17 5 25 18 26m38-26h14c0 17-5 25-18 26M64 81v16M48 104h32"/></g><text x="64" y="65" text-anchor="middle" font-family="Arial,sans-serif" font-size="34" font-weight="900" fill="#f8edcf">1</text></svg>