{"asset":{"version":"2.0"},"scene":0,"scenes":[{"nodes":[0]}],"nodes":[{"mesh":0}],"meshes":[{"primitives":[{"attributes":{"POSITION":0,"NORMAL":1},"indices":2,"material":0},{"attributes":{"POSITION":3,"NORMAL":4},"indices":5,"material":1},{"attributes":{"POSITION":6,"NORMAL":7},"indices":8,"material":2},{"attributes":{"POSITION":9,"NORMAL":10},"indices":11,"material":3},{"attributes":{"POSITION":12,"NORMAL":13},"indices":14,"material":4},{"attributes":{"POSITION":15,"NORMAL":16},"indices":17,"material":5},{"attributes":{"POSITION":18,"NORMAL":19},"indices":20,"material":6},{"attributes":{"POSITION":21,"NORMAL":22},"indices":23,"material":7},{"attributes":{"POSITION":24,"NORMAL":25},"indices":26,"material":8},{"attributes":{"POSITION":27,"NORMAL":28},"indices":29,"material":9},{"attributes":{"POSITION":30,"NORMAL":31},"indices":32,"material":10},{"attributes":{"POSITION":33,"NORMAL":34},"indices":35,"material":11},{"attributes":{"POSITION":36,"NORMAL":37},"indices":38,"material":12},{"attributes":{"POSITION":39,"NORMAL":40},"indices":41,"material":13},{"attributes":{"POSITION":42,"NORMAL":43},"indices":44,"material":14},{"attributes":{"POSITION":45,"NORMAL":46},"indices":47,"material":15},{"attributes":{"POSITION":48,"NORMAL":49},"indices":50,"material":16},{"attributes":{"POSITION":51,"NORMAL":52},"indices":53,"material":17},{"attributes":{"POSITION":54,"NORMAL":55},"indices":56,"material":18}]}],"materials":[{"pbrMetallicRoughness":{"baseColorFactor":[0.6,0.67,0.68,1],"roughnessFactor":0.55,"metallicFactor":0.25}},{"pbrMetallicRoughness":{"baseColorFactor":[0.6,0.67,0.68,1],"roughnessFactor":0.55,"metallicFactor":0.25}},{"pbrMetallicRoughness":{"baseColorFactor":[0.6,0.67,0.68,1],"roughnessFactor":0.55,"metallicFactor":0.25}},{"pbrMetallicRoughness":{"baseColorFactor":[0.07,0.1,0.12,1],"roughnessFactor":0.55,"metallicFactor":0.25}},{"pbrMetallicRoughness":{"baseColorFactor":[0.07,0.1,0.12,1],"roughnessFactor":0.55,"metallicFactor":0.25}},{"pbrMetallicRoughness":{"baseColorFactor":[0.07,0.1,0.12,1],"roughnessFactor":0.55,"metallicFactor":0.25}},{"pbrMetallicRoughness":{"baseColorFactor":[0.07,0.1,0.12,1],"roughnessFactor":0.55,"metallicFactor":0.25}},{"pbrMetallicRoughness":{"baseColorFactor":[0.07,0.1,0.12,1],"roughnessFactor":0.55,"metallicFactor":0.25}},{"pbrMetallicRoughness":{"baseColorFactor":[0.07,0.1,0.12,1],"roughnessFactor":0.55,"metallicFactor":0.25}},{"pbrMetallicRoughness":{"baseColorFactor":[0.07,0.1,0.12,1],"roughnessFactor":0.55,"metallicFactor":0.25}},{"pbrMetallicRoughness":{"baseColorFactor":[0.07,0.1,0.12,1],"roughnessFactor":0.55,"metallicFactor":0.25}},{"pbrMetallicRoughness":{"baseColorFactor":[0.07,0.1,0.12,1],"roughnessFactor":0.55,"metallicFactor":0.25}},{"pbrMetallicRoughness":{"baseColorFactor":[0.07,0.1,0.12,1],"roughnessFactor":0.55,"metallicFactor":0.25}},{"pbrMetallicRoughness":{"baseColorFactor":[0.07,0.1,0.12,1],"roughnessFactor":0.55,"metallicFactor":0.25}},{"pbrMetallicRoughness":{"baseColorFactor":[0.07,0.1,0.12,1],"roughnessFactor":0.55,"metallicFactor":0.25}},{"pbrMetallicRoughness":{"baseColorFactor":[0.07,0.1,0.12,1],"roughnessFactor":0.55,"metallicFactor":0.25}},{"pbrMetallicRoughness":{"baseColorFactor":[0.07,0.1,0.12,1],"roughnessFactor":0.55,"metallicFactor":0.25}},{"pbrMetallicRoughness":{"baseColorFactor":[0.07,0.1,0.12,1],"roughnessFactor":0.55,"metallicFactor":0.25}},{"pbrMetallicRoughness":{"baseColorFactor":[0.07,0.1,0.12,1],"roughnessFactor":0.55,"metallicFactor":0.25}}],"buffers":[{"byteLength":33144,"uri":"data:application/octet-stream;base64,"}],"bufferViews":[{"buffer":0,"byteOffset":0,"byteLength":3900},{"buffer":0,"byteOffset":3900,"byteLength":3900},{"buffer":0,"byteOffset":7800,"byteLength":3312},{"buffer":0,"byteOffset":11112,"byteLength":288},{"buffer":0,"byteOffset":11400,"byteLength":288},{"buffer":0,"byteOffset":11688,"byteLength":72},{"buffer":0,"byteOffset":11760,"byteLength":288},{"buffer":0,"byteOffset":12048,"byteLength":288},{"buffer":0,"byteOffset":12336,"byteLength":72},{"buffer":0,"byteOffset":12408,"byteLength":504},{"buffer":0,"byteOffset":12912,"byteLength":504},{"buffer":0,"byteOffset":13416,"byteLength":288},{"buffer":0,"byteOffset":13704,"byteLength":504},{"buffer":0,"byteOffset":14208,"byteLength":504},{"buffer":0,"byteOffset":14712,"byteLength":288},{"buffer":0,"byteOffset":15000,"byteLength":504},{"buffer":0,"byteOffset":15504,"byteLength":504},{"buffer":0,"byteOffset":16008,"byteLength":288},{"buffer":0,"byteOffset":16296,"byteLength":504},{"buffer":0,"byteOffset":16800,"byteLength":504},{"buffer":0,"byteOffset":17304,"byteLength":288},{"buffer":0,"byteOffset":17592,"byteLength":504},{"buffer":0,"byteOffset":18096,"byteLength":504},{"buffer":0,"byteOffset":18600,"byteLength":288},{"buffer":0,"byteOffset":18888,"byteLength":504},{"buffer":0,"byteOffset":19392,"byteLength":504},{"buffer":0,"byteOffset":19896,"byteLength":288},{"buffer":0,"byteOffset":20184,"byteLength":504},{"buffer":0,"byteOffset":20688,"byteLength":504},{"buffer":0,"byteOffset":21192,"byteLength":288},{"buffer":0,"byteOffset":21480,"byteLength":504},{"buffer":0,"byteOffset":21984,"byteLength":504},{"buffer":0,"byteOffset":22488,"byteLength":288},{"buffer":0,"byteOffset":22776,"byteLength":504},{"buffer":0,"byteOffset":23280,"byteLength":504},{"buffer":0,"byteOffset":23784,"byteLength":288},{"buffer":0,"byteOffset":24072,"byteLength":504},{"buffer":0,"byteOffset":24576,"byteLength":504},{"buffer":0,"byteOffset":25080,"byteLength":288},{"buffer":0,"byteOffset":25368,"byteLength":504},{"buffer":0,"byteOffset":25872,"byteLength":504},{"buffer":0,"byteOffset":26376,"byteLength":288},{"buffer":0,"byteOffset":26664,"byteLength":504},{"buffer":0,"byteOffset":27168,"byteLength":504},{"buffer":0,"byteOffset":27672,"byteLength":288},{"buffer":0,"byteOffset":27960,"byteLength":504},{"buffer":0,"byteOffset":28464,"byteLength":504},{"buffer":0,"byteOffset":28968,"byteLength":288},{"buffer":0,"byteOffset":29256,"byteLength":504},{"buffer":0,"byteOffset":29760,"byteLength":504},{"buffer":0,"byteOffset":30264,"byteLength":288},{"buffer":0,"byteOffset":30552,"byteLength":504},{"buffer":0,"byteOffset":31056,"byteLength":504},{"buffer":0,"byteOffset":31560,"byteLength":288},{"buffer":0,"byteOffset":31848,"byteLength":504},{"buffer":0,"byteOffset":32352,"byteLength":504},{"buffer":0,"byteOffset":32856,"byteLength":288}],"accessors":[{"bufferView":0,"componentType":5126,"count":325,"type":"VEC3","min":[-0.06000000610947609,-0.3400000035762787,-0.3400000035762787],"max":[0.05999999865889549,0.3400000035762787,0.3400000035762787]},{"bufferView":1,"componentType":5126,"count":325,"type":"VEC3"},{"bufferView":2,"componentType":5123,"count":1656,"type":"SCALAR"},{"bufferView":3,"componentType":5126,"count":24,"type":"VEC3","min":[-0.05000000074505806,-0.05000000074505806,-0.4699999988079071],"max":[0.05000000074505806,0.05000000074505806,-0.3100000023841858]},{"bufferView":4,"componentType":5126,"count":24,"type":"VEC3"},{"bufferView":5,"componentType":5123,"count":36,"type":"SCALAR"},{"bufferView":6,"componentType":5126,"count":24,"type":"VEC3","min":[-0.05000000074505806,-0.05000000074505806,0.3100000023841858],"max":[0.05000000074505806,0.05000000074505806,0.4699999988079071]},{"bufferView":7,"componentType":5126,"count":24,"type":"VEC3"},{"bufferView":8,"componentType":5123,"count":36,"type":"SCALAR"},{"bufferView":9,"componentType":5126,"count":42,"type":"VEC3","min":[-0.03904338181018829,0.18400000035762787,-0.013178225606679916],"max":[-0.03295661881566048,0.2160000056028366,0.013178225606679916]},{"bufferView":10,"componentType":5126,"count":42,"type":"VEC3"},{"bufferView":11,"componentType":5123,"count":144,"type":"SCALAR"},{"bufferView":12,"componentType":5126,"count":42,"type":"VEC3","min":[-0.03904338181018829,0.16877590119838715,0.06335846334695816],"max":[-0.03295661881566048,0.2007759064435959,0.089714914560318]},{"bufferView":13,"componentType":5126,"count":42,"type":"VEC3"},{"bufferView":14,"componentType":5123,"count":144,"type":"SCALAR"},{"bufferView":15,"componentType":5126,"count":42,"type":"VEC3","min":[-0.03904338181018829,0.12542136013507843,0.12824313342571259],"max":[-0.03295661881566048,0.15742135047912598,0.15459957718849182]},{"bufferView":16,"componentType":5126,"count":42,"type":"VEC3"},{"bufferView":17,"componentType":5123,"count":144,"type":"SCALAR"},{"bufferView":18,"componentType":5126,"count":42,"type":"VEC3","min":[-0.03904338181018829,0.06053668633103371,0.1715976744890213],"max":[-0.03295661881566048,0.09253668785095215,0.19795413315296173]},{"bufferView":19,"componentType":5126,"count":42,"type":"VEC3"},{"bufferView":20,"componentType":5123,"count":144,"type":"SCALAR"},{"bufferView":21,"componentType":5126,"count":42,"type":"VEC3","min":[-0.03904338181018829,-0.01600000075995922,0.18682177364826202],"max":[-0.03295661881566048,0.01600000075995922,0.21317823231220245]},{"bufferView":22,"componentType":5126,"count":42,"type":"VEC3"},{"bufferView":23,"componentType":5123,"count":144,"type":"SCALAR"},{"bufferView":24,"componentType":5126,"count":42,"type":"VEC3","min":[-0.03904338181018829,-0.09253668785095215,0.1715976744890213],"max":[-0.03295661881566048,-0.06053668633103371,0.19795413315296173]},{"bufferView":25,"componentType":5126,"count":42,"type":"VEC3"},{"bufferView":26,"componentType":5123,"count":144,"type":"SCALAR"},{"bufferView":27,"componentType":5126,"count":42,"type":"VEC3","min":[-0.03904338181018829,-0.15742135047912598,0.12824313342571259],"max":[-0.03295661881566048,-0.12542136013507843,0.15459957718849182]},{"bufferView":28,"componentType":5126,"count":42,"type":"VEC3"},{"bufferView":29,"componentType":5123,"count":144,"type":"SCALAR"},{"bufferView":30,"componentType":5126,"count":42,"type":"VEC3","min":[-0.03904338181018829,-0.2007759064435959,0.06335846334695816],"max":[-0.03295661881566048,-0.16877590119838715,0.089714914560318]},{"bufferView":31,"componentType":5126,"count":42,"type":"VEC3"},{"bufferView":32,"componentType":5123,"count":144,"type":"SCALAR"},{"bufferView":33,"componentType":5126,"count":42,"type":"VEC3","min":[-0.03904338181018829,-0.2160000056028366,-0.013178225606679916],"max":[-0.03295661881566048,-0.18400000035762787,0.013178225606679916]},{"bufferView":34,"componentType":5126,"count":42,"type":"VEC3"},{"bufferView":35,"componentType":5123,"count":144,"type":"SCALAR"},{"bufferView":36,"componentType":5126,"count":42,"type":"VEC3","min":[-0.03904338181018829,-0.2007759064435959,-0.089714914560318],"max":[-0.03295661881566048,-0.16877590119838715,-0.06335846334695816]},{"bufferView":37,"componentType":5126,"count":42,"type":"VEC3"},{"bufferView":38,"componentType":5123,"count":144,"type":"SCALAR"},{"bufferView":39,"componentType":5126,"count":42,"type":"VEC3","min":[-0.03904338181018829,-0.15742135047912598,-0.15459957718849182],"max":[-0.03295661881566048,-0.12542136013507843,-0.12824313342571259]},{"bufferView":40,"componentType":5126,"count":42,"type":"VEC3"},{"bufferView":41,"componentType":5123,"count":144,"type":"SCALAR"},{"bufferView":42,"componentType":5126,"count":42,"type":"VEC3","min":[-0.03904338181018829,-0.09253668785095215,-0.19795413315296173],"max":[-0.03295661881566048,-0.06053668633103371,-0.1715976744890213]},{"bufferView":43,"componentType":5126,"count":42,"type":"VEC3"},{"bufferView":44,"componentType":5123,"count":144,"type":"SCALAR"},{"bufferView":45,"componentType":5126,"count":42,"type":"VEC3","min":[-0.03904338181018829,-0.01600000075995922,-0.21317823231220245],"max":[-0.03295661881566048,0.01600000075995922,-0.18682177364826202]},{"bufferView":46,"componentType":5126,"count":42,"type":"VEC3"},{"bufferView":47,"componentType":5123,"count":144,"type":"SCALAR"},{"bufferView":48,"componentType":5126,"count":42,"type":"VEC3","min":[-0.03904338181018829,0.06053668633103371,-0.19795413315296173],"max":[-0.03295661881566048,0.09253668785095215,-0.1715976744890213]},{"bufferView":49,"componentType":5126,"count":42,"type":"VEC3"},{"bufferView":50,"componentType":5123,"count":144,"type":"SCALAR"},{"bufferView":51,"componentType":5126,"count":42,"type":"VEC3","min":[-0.03904338181018829,0.12542136013507843,-0.15459957718849182],"max":[-0.03295661881566048,0.15742135047912598,-0.12824313342571259]},{"bufferView":52,"componentType":5126,"count":42,"type":"VEC3"},{"bufferView":53,"componentType":5123,"count":144,"type":"SCALAR"},{"bufferView":54,"componentType":5126,"count":42,"type":"VEC3","min":[-0.03904338181018829,0.16877590119838715,-0.089714914560318],"max":[-0.03295661881566048,0.2007759064435959,-0.06335846334695816]},{"bufferView":55,"componentType":5126,"count":42,"type":"VEC3"},{"bufferView":56,"componentType":5123,"count":144,"type":"SCALAR"}]}