{"asset":{"version":"2.0"},"scene":0,"scenes":[{"nodes":[0]}],"nodes":[{"mesh":0}],"meshes":[{"primitives":[{"attributes":{"POSITION":0,"NORMAL":1},"indices":2,"material":0},{"attributes":{"POSITION":3,"NORMAL":4},"indices":5,"material":1},{"attributes":{"POSITION":6,"NORMAL":7},"indices":8,"material":2},{"attributes":{"POSITION":9,"NORMAL":10},"indices":11,"material":3},{"attributes":{"POSITION":12,"NORMAL":13},"indices":14,"material":4},{"attributes":{"POSITION":15,"NORMAL":16},"indices":17,"material":5},{"attributes":{"POSITION":18,"NORMAL":19},"indices":20,"material":6},{"attributes":{"POSITION":21,"NORMAL":22},"indices":23,"material":7},{"attributes":{"POSITION":24,"NORMAL":25},"indices":26,"material":8},{"attributes":{"POSITION":27,"NORMAL":28},"indices":29,"material":9},{"attributes":{"POSITION":30,"NORMAL":31},"indices":32,"material":10},{"attributes":{"POSITION":33,"NORMAL":34},"indices":35,"material":11},{"attributes":{"POSITION":36,"NORMAL":37},"indices":38,"material":12},{"attributes":{"POSITION":39,"NORMAL":40},"indices":41,"material":13},{"attributes":{"POSITION":42,"NORMAL":43},"indices":44,"material":14},{"attributes":{"POSITION":45,"NORMAL":46},"indices":47,"material":15},{"attributes":{"POSITION":48,"NORMAL":49},"indices":50,"material":16}]}],"materials":[{"pbrMetallicRoughness":{"baseColorFactor":[0.18,0.57,0.6,1],"roughnessFactor":0.55,"metallicFactor":0.25}},{"pbrMetallicRoughness":{"baseColorFactor":[0.6,0.67,0.68,1],"roughnessFactor":0.55,"metallicFactor":0.25}},{"pbrMetallicRoughness":{"baseColorFactor":[0.6,0.67,0.68,1],"roughnessFactor":0.55,"metallicFactor":0.25}},{"pbrMetallicRoughness":{"baseColorFactor":[0.6,0.67,0.68,1],"roughnessFactor":0.55,"metallicFactor":0.25}},{"pbrMetallicRoughness":{"baseColorFactor":[0.6,0.67,0.68,1],"roughnessFactor":0.55,"metallicFactor":0.25}},{"pbrMetallicRoughness":{"baseColorFactor":[0.6,0.67,0.68,1],"roughnessFactor":0.55,"metallicFactor":0.25}},{"pbrMetallicRoughness":{"baseColorFactor":[0.6,0.67,0.68,1],"roughnessFactor":0.55,"metallicFactor":0.25}},{"pbrMetallicRoughness":{"baseColorFactor":[0.6,0.67,0.68,1],"roughnessFactor":0.55,"metallicFactor":0.25}},{"pbrMetallicRoughness":{"baseColorFactor":[0.6,0.67,0.68,1],"roughnessFactor":0.55,"metallicFactor":0.25}},{"pbrMetallicRoughness":{"baseColorFactor":[0.6,0.67,0.68,1],"roughnessFactor":0.55,"metallicFactor":0.25}},{"pbrMetallicRoughness":{"baseColorFactor":[0.6,0.67,0.68,1],"roughnessFactor":0.55,"metallicFactor":0.25}},{"pbrMetallicRoughness":{"baseColorFactor":[0.73,0.54,0.32,1],"roughnessFactor":0.55,"metallicFactor":0.25}},{"pbrMetallicRoughness":{"baseColorFactor":[0.88,0.75,0.5,1],"roughnessFactor":0.55,"metallicFactor":0.25}},{"pbrMetallicRoughness":{"baseColorFactor":[0.07,0.1,0.12,1],"roughnessFactor":0.55,"metallicFactor":0.25}},{"pbrMetallicRoughness":{"baseColorFactor":[0.07,0.1,0.12,1],"roughnessFactor":0.55,"metallicFactor":0.25}},{"pbrMetallicRoughness":{"baseColorFactor":[0.88,0.75,0.5,1],"roughnessFactor":0.55,"metallicFactor":0.25}},{"pbrMetallicRoughness":{"baseColorFactor":[0.88,0.75,0.5,1],"roughnessFactor":0.55,"metallicFactor":0.25}}],"buffers":[{"byteLength":43896,"uri":"data:application/octet-stream;base64,"}],"bufferViews":[{"buffer":0,"byteOffset":0,"byteLength":288},{"buffer":0,"byteOffset":288,"byteLength":288},{"buffer":0,"byteOffset":576,"byteLength":72},{"buffer":0,"byteOffset":648,"byteLength":2772},{"buffer":0,"byteOffset":3420,"byteLength":2772},{"buffer":0,"byteOffset":6192,"byteLength":2304},{"buffer":0,"byteOffset":8496,"byteLength":2772},{"buffer":0,"byteOffset":11268,"byteLength":2772},{"buffer":0,"byteOffset":14040,"byteLength":2304},{"buffer":0,"byteOffset":16344,"byteLength":480},{"buffer":0,"byteOffset":16824,"byteLength":480},{"buffer":0,"byteOffset":17304,"byteLength":144},{"buffer":0,"byteOffset":17448,"byteLength":480},{"buffer":0,"byteOffset":17928,"byteLength":480},{"buffer":0,"byteOffset":18408,"byteLength":144},{"buffer":0,"byteOffset":18552,"byteLength":480},{"buffer":0,"byteOffset":19032,"byteLength":480},{"buffer":0,"byteOffset":19512,"byteLength":144},{"buffer":0,"byteOffset":19656,"byteLength":480},{"buffer":0,"byteOffset":20136,"byteLength":480},{"buffer":0,"byteOffset":20616,"byteLength":144},{"buffer":0,"byteOffset":20760,"byteLength":480},{"buffer":0,"byteOffset":21240,"byteLength":480},{"buffer":0,"byteOffset":21720,"byteLength":144},{"buffer":0,"byteOffset":21864,"byteLength":480},{"buffer":0,"byteOffset":22344,"byteLength":480},{"buffer":0,"byteOffset":22824,"byteLength":144},{"buffer":0,"byteOffset":22968,"byteLength":480},{"buffer":0,"byteOffset":23448,"byteLength":480},{"buffer":0,"byteOffset":23928,"byteLength":144},{"buffer":0,"byteOffset":24072,"byteLength":480},{"buffer":0,"byteOffset":24552,"byteLength":480},{"buffer":0,"byteOffset":25032,"byteLength":144},{"buffer":0,"byteOffset":25176,"byteLength":2652},{"buffer":0,"byteOffset":27828,"byteLength":2652},{"buffer":0,"byteOffset":30480,"byteLength":2112},{"buffer":0,"byteOffset":32592,"byteLength":1716},{"buffer":0,"byteOffset":34308,"byteLength":1716},{"buffer":0,"byteOffset":36024,"byteLength":1296},{"buffer":0,"byteOffset":37320,"byteLength":504},{"buffer":0,"byteOffset":37824,"byteLength":504},{"buffer":0,"byteOffset":38328,"byteLength":288},{"buffer":0,"byteOffset":38616,"byteLength":504},{"buffer":0,"byteOffset":39120,"byteLength":504},{"buffer":0,"byteOffset":39624,"byteLength":288},{"buffer":0,"byteOffset":39912,"byteLength":756},{"buffer":0,"byteOffset":40668,"byteLength":756},{"buffer":0,"byteOffset":41424,"byteLength":480},{"buffer":0,"byteOffset":41904,"byteLength":756},{"buffer":0,"byteOffset":42660,"byteLength":756},{"buffer":0,"byteOffset":43416,"byteLength":480}],"accessors":[{"bufferView":0,"componentType":5126,"count":24,"type":"VEC3","min":[-0.17499999701976776,-0.3799999952316284,-0.25],"max":[0.17499999701976776,-0.30000001192092896,0.25]},{"bufferView":1,"componentType":5126,"count":24,"type":"VEC3"},{"bufferView":2,"componentType":5123,"count":36,"type":"SCALAR"},{"bufferView":3,"componentType":5126,"count":231,"type":"VEC3","min":[-0.12039230763912201,-0.3319999873638153,-0.3319999873638153],"max":[-0.09960769861936569,0.3319999873638153,0.3319999873638153]},{"bufferView":4,"componentType":5126,"count":231,"type":"VEC3"},{"bufferView":5,"componentType":5123,"count":1152,"type":"SCALAR"},{"bufferView":6,"componentType":5126,"count":231,"type":"VEC3","min":[0.09960769861936569,-0.3319999873638153,-0.3319999873638153],"max":[0.12039230763912201,0.3319999873638153,0.3319999873638153]},{"bufferView":7,"componentType":5126,"count":231,"type":"VEC3"},{"bufferView":8,"componentType":5123,"count":1152,"type":"SCALAR"},{"bufferView":9,"componentType":5126,"count":40,"type":"VEC3","min":[-0.10999999940395355,0.30960768461227417,-0.012000000104308128],"max":[0.10999999940395355,0.3303923010826111,0.012000000104308128]},{"bufferView":10,"componentType":5126,"count":40,"type":"VEC3"},{"bufferView":11,"componentType":5123,"count":72,"type":"SCALAR"},{"bufferView":12,"componentType":5126,"count":40,"type":"VEC3","min":[-0.10999999940395355,0.21588186919689178,0.21427416801452637],"max":[0.10999999940395355,0.2366664707660675,0.23827417194843292]},{"bufferView":13,"componentType":5126,"count":40,"type":"VEC3"},{"bufferView":14,"componentType":5123,"count":72,"type":"SCALAR"},{"bufferView":15,"componentType":5126,"count":40,"type":"VEC3","min":[-0.10999999940395355,-0.010392304509878159,0.30799999833106995],"max":[0.10999999940395355,0.010392304509878159,0.3319999873638153]},{"bufferView":16,"componentType":5126,"count":40,"type":"VEC3"},{"bufferView":17,"componentType":5123,"count":72,"type":"SCALAR"},{"bufferView":18,"componentType":5126,"count":40,"type":"VEC3","min":[-0.10999999940395355,-0.2366664707660675,0.21427416801452637],"max":[0.10999999940395355,-0.21588186919689178,0.23827417194843292]},{"bufferView":19,"componentType":5126,"count":40,"type":"VEC3"},{"bufferView":20,"componentType":5123,"count":72,"type":"SCALAR"},{"bufferView":21,"componentType":5126,"count":40,"type":"VEC3","min":[-0.10999999940395355,-0.3303923010826111,-0.012000000104308128],"max":[0.10999999940395355,-0.30960768461227417,0.012000000104308128]},{"bufferView":22,"componentType":5126,"count":40,"type":"VEC3"},{"bufferView":23,"componentType":5123,"count":72,"type":"SCALAR"},{"bufferView":24,"componentType":5126,"count":40,"type":"VEC3","min":[-0.10999999940395355,-0.2366664707660675,-0.23827417194843292],"max":[0.10999999940395355,-0.21588186919689178,-0.21427416801452637]},{"bufferView":25,"componentType":5126,"count":40,"type":"VEC3"},{"bufferView":26,"componentType":5123,"count":72,"type":"SCALAR"},{"bufferView":27,"componentType":5126,"count":40,"type":"VEC3","min":[-0.10999999940395355,-0.010392304509878159,-0.3319999873638153],"max":[0.10999999940395355,0.010392304509878159,-0.30799999833106995]},{"bufferView":28,"componentType":5126,"count":40,"type":"VEC3"},{"bufferView":29,"componentType":5123,"count":72,"type":"SCALAR"},{"bufferView":30,"componentType":5126,"count":40,"type":"VEC3","min":[-0.10999999940395355,0.21588186919689178,-0.23827417194843292],"max":[0.10999999940395355,0.2366664707660675,-0.21427416801452637]},{"bufferView":31,"componentType":5126,"count":40,"type":"VEC3"},{"bufferView":32,"componentType":5123,"count":72,"type":"SCALAR"},{"bufferView":33,"componentType":5126,"count":221,"type":"VEC3","min":[-0.10399999469518661,-0.25999999046325684,-0.12999999523162842],"max":[0.10399999469518661,-4.76837147544984e-9,0.12999999523162842]},{"bufferView":34,"componentType":5126,"count":221,"type":"VEC3"},{"bufferView":35,"componentType":5123,"count":1056,"type":"SCALAR"},{"bufferView":36,"componentType":5126,"count":143,"type":"VEC3","min":[-0.07500000298023224,-0.1300000101327896,-0.19500000774860382],"max":[0.07500000298023224,0.020000003278255463,-0.044999998062849045]},{"bufferView":37,"componentType":5126,"count":143,"type":"VEC3"},{"bufferView":38,"componentType":5123,"count":648,"type":"SCALAR"},{"bufferView":39,"componentType":5126,"count":42,"type":"VEC3","min":[-0.048559509217739105,-0.04399999976158142,-0.1904127448797226],"max":[-0.03144049271941185,-0.026000000536441803,-0.1755872517824173]},{"bufferView":40,"componentType":5126,"count":42,"type":"VEC3"},{"bufferView":41,"componentType":5123,"count":144,"type":"SCALAR"},{"bufferView":42,"componentType":5126,"count":42,"type":"VEC3","min":[0.03144049271941185,-0.04399999976158142,-0.1904127448797226],"max":[0.048559509217739105,-0.026000000536441803,-0.1755872517824173]},{"bufferView":43,"componentType":5126,"count":42,"type":"VEC3"},{"bufferView":44,"componentType":5123,"count":144,"type":"SCALAR"},{"bufferView":45,"componentType":5126,"count":63,"type":"VEC3","min":[-0.08999999612569809,-0.024000000208616257,-0.11999999731779099],"max":[-0.030000001192092896,0.035999998450279236,-0.06000000238418579]},{"bufferView":46,"componentType":5126,"count":63,"type":"VEC3"},{"bufferView":47,"componentType":5123,"count":240,"type":"SCALAR"},{"bufferView":48,"componentType":5126,"count":63,"type":"VEC3","min":[0.030000001192092896,-0.024000000208616257,-0.11999999731779099],"max":[0.08999999612569809,0.035999998450279236,-0.06000000238418579]},{"bufferView":49,"componentType":5126,"count":63,"type":"VEC3"},{"bufferView":50,"componentType":5123,"count":240,"type":"SCALAR"}]}