{"asset":{"version":"2.0"},"scene":0,"scenes":[{"nodes":[0]}],"nodes":[{"mesh":0}],"meshes":[{"primitives":[{"attributes":{"POSITION":0,"NORMAL":1},"indices":2,"material":0},{"attributes":{"POSITION":3,"NORMAL":4},"indices":5,"material":1},{"attributes":{"POSITION":6,"NORMAL":7},"indices":8,"material":2},{"attributes":{"POSITION":9,"NORMAL":10},"indices":11,"material":3},{"attributes":{"POSITION":12,"NORMAL":13},"indices":14,"material":4}]}],"materials":[{"pbrMetallicRoughness":{"baseColorFactor":[0.92,0.92,0.85,1],"roughnessFactor":0.55,"metallicFactor":0.25}},{"pbrMetallicRoughness":{"baseColorFactor":[0.07,0.1,0.12,1],"roughnessFactor":0.55,"metallicFactor":0.25}},{"pbrMetallicRoughness":{"baseColorFactor":[0.75,0.14,0.15,1],"roughnessFactor":0.55,"metallicFactor":0.25}},{"pbrMetallicRoughness":{"baseColorFactor":[0.6,0.67,0.68,1],"roughnessFactor":0.55,"metallicFactor":0.25}},{"pbrMetallicRoughness":{"baseColorFactor":[0.6,0.67,0.68,1],"roughnessFactor":0.55,"metallicFactor":0.25}}],"buffers":[{"byteLength":5496,"uri":"data:application/octet-stream;base64,"}],"bufferViews":[{"buffer":0,"byteOffset":0,"byteLength":288},{"buffer":0,"byteOffset":288,"byteLength":288},{"buffer":0,"byteOffset":576,"byteLength":72},{"buffer":0,"byteOffset":648,"byteLength":288},{"buffer":0,"byteOffset":936,"byteLength":288},{"buffer":0,"byteOffset":1224,"byteLength":72},{"buffer":0,"byteOffset":1296,"byteLength":288},{"buffer":0,"byteOffset":1584,"byteLength":288},{"buffer":0,"byteOffset":1872,"byteLength":72},{"buffer":0,"byteOffset":1944,"byteLength":768},{"buffer":0,"byteOffset":2712,"byteLength":768},{"buffer":0,"byteOffset":3480,"byteLength":240},{"buffer":0,"byteOffset":3720,"byteLength":768},{"buffer":0,"byteOffset":4488,"byteLength":768},{"buffer":0,"byteOffset":5256,"byteLength":240}],"accessors":[{"bufferView":0,"componentType":5126,"count":24,"type":"VEC3","min":[-0.23000000417232513,-0.06000000238418579,-0.3100000023841858],"max":[0.23000000417232513,0.14000000059604645,0.3100000023841858]},{"bufferView":1,"componentType":5126,"count":24,"type":"VEC3"},{"bufferView":2,"componentType":5123,"count":36,"type":"SCALAR"},{"bufferView":3,"componentType":5126,"count":24,"type":"VEC3","min":[-0.0949999988079071,0.14000000059604645,-0.10999999940395355],"max":[0.0949999988079071,0.1420000046491623,0.10999999940395355]},{"bufferView":4,"componentType":5126,"count":24,"type":"VEC3"},{"bufferView":5,"componentType":5123,"count":36,"type":"SCALAR"},{"bufferView":6,"componentType":5126,"count":24,"type":"VEC3","min":[0.11500000208616257,0.1264999955892563,-0.19499999284744263],"max":[0.1850000023841858,0.14149999618530273,-0.125]},{"bufferView":7,"componentType":5126,"count":24,"type":"VEC3"},{"bufferView":8,"componentType":5123,"count":36,"type":"SCALAR"},{"bufferView":9,"componentType":5126,"count":64,"type":"VEC3","min":[-0.1537764072418213,-0.14000000059604645,0.125],"max":[-0.10622359067201614,-0.06000000238418579,0.17499999701976776]},{"bufferView":10,"componentType":5126,"count":64,"type":"VEC3"},{"bufferView":11,"componentType":5123,"count":120,"type":"SCALAR"},{"bufferView":12,"componentType":5126,"count":64,"type":"VEC3","min":[0.10622359067201614,-0.14000000059604645,0.125],"max":[0.1537764072418213,-0.06000000238418579,0.17499999701976776]},{"bufferView":13,"componentType":5126,"count":64,"type":"VEC3"},{"bufferView":14,"componentType":5123,"count":120,"type":"SCALAR"}]}