{"asset":{"version":"2.0","generator":"Clutter Cup original asset generator"},"scene":0,"scenes":[{"nodes":[0]}],"nodes":[{"mesh":0,"name":"item-root"}],"meshes":[{"primitives":[{"attributes":{"POSITION":0,"NORMAL":1},"indices":2,"material":0}]}],"materials":[{"pbrMetallicRoughness":{"baseColorFactor":[0.12,0.64,0.58,1],"metallicFactor":0.05,"roughnessFactor":0.28}}],"buffers":[{"byteLength":4128,"uri":"data:application/octet-stream;base64,"}],"bufferViews":[{"buffer":0,"byteOffset":0,"byteLength":1776},{"buffer":0,"byteOffset":1776,"byteLength":1776},{"buffer":0,"byteOffset":3552,"byteLength":576}],"accessors":[{"bufferView":0,"componentType":5126,"count":148,"type":"VEC3","min":[-0.04,-0.34,-0.34],"max":[0.04,0.34,0.34]},{"bufferView":1,"componentType":5126,"count":148,"type":"VEC3"},{"bufferView":2,"componentType":5123,"count":288,"type":"SCALAR"}]}