{"asset":{"version":"2.0"},"scene":0,"scenes":[{"nodes":[0]}],"nodes":[{"mesh":0}],"meshes":[{"primitives":[{"attributes":{"POSITION":0,"NORMAL":1},"indices":2,"material":0},{"attributes":{"POSITION":3,"NORMAL":4},"indices":5,"material":1},{"attributes":{"POSITION":6,"NORMAL":7},"indices":8,"material":2},{"attributes":{"POSITION":9,"NORMAL":10},"indices":11,"material":3}]}],"materials":[{"pbrMetallicRoughness":{"baseColorFactor":[0.6,0.67,0.68,1],"roughnessFactor":0.55,"metallicFactor":0.25}},{"pbrMetallicRoughness":{"baseColorFactor":[0.07,0.1,0.12,1],"roughnessFactor":0.55,"metallicFactor":0.25}},{"pbrMetallicRoughness":{"baseColorFactor":[0.07,0.1,0.12,1],"roughnessFactor":0.55,"metallicFactor":0.25}},{"pbrMetallicRoughness":{"baseColorFactor":[0.75,0.14,0.15,1],"roughnessFactor":0.55,"metallicFactor":0.25}}],"buffers":[{"byteLength":5160,"uri":"data:application/octet-stream;base64,"}],"bufferViews":[{"buffer":0,"byteOffset":0,"byteLength":288},{"buffer":0,"byteOffset":288,"byteLength":288},{"buffer":0,"byteOffset":576,"byteLength":72},{"buffer":0,"byteOffset":648,"byteLength":288},{"buffer":0,"byteOffset":936,"byteLength":288},{"buffer":0,"byteOffset":1224,"byteLength":72},{"buffer":0,"byteOffset":1296,"byteLength":288},{"buffer":0,"byteOffset":1584,"byteLength":288},{"buffer":0,"byteOffset":1872,"byteLength":72},{"buffer":0,"byteOffset":1944,"byteLength":1188},{"buffer":0,"byteOffset":3132,"byteLength":1188},{"buffer":0,"byteOffset":4320,"byteLength":840}],"accessors":[{"bufferView":0,"componentType":5126,"count":24,"type":"VEC3","min":[-0.25999999046325684,-0.3199999928474426,-0.23999999463558197],"max":[0.25999999046325684,0.3199999928474426,0.23999999463558197]},{"bufferView":1,"componentType":5126,"count":24,"type":"VEC3"},{"bufferView":2,"componentType":5123,"count":36,"type":"SCALAR"},{"bufferView":3,"componentType":5126,"count":24,"type":"VEC3","min":[-0.16500000655651093,0.3199999928474426,-0.16500000655651093],"max":[-0.0949999988079071,0.32199999690055847,0.16500000655651093]},{"bufferView":4,"componentType":5126,"count":24,"type":"VEC3"},{"bufferView":5,"componentType":5123,"count":36,"type":"SCALAR"},{"bufferView":6,"componentType":5126,"count":24,"type":"VEC3","min":[0.0949999988079071,0.3199999928474426,-0.16500000655651093],"max":[0.16500000655651093,0.32199999690055847,0.16500000655651093]},{"bufferView":7,"componentType":5126,"count":24,"type":"VEC3"},{"bufferView":8,"componentType":5123,"count":36,"type":"SCALAR"},{"bufferView":9,"componentType":5126,"count":99,"type":"VEC3","min":[0.0949999988079071,-0.005000000353902578,-0.2537764012813568],"max":[0.14499999582767487,0.04500000178813934,-0.20622359216213226]},{"bufferView":10,"componentType":5126,"count":99,"type":"VEC3"},{"bufferView":11,"componentType":5123,"count":420,"type":"SCALAR"}]}